<?xml version="1.0" encoding="iso-8859-1"?>
<!-- Generator: Adobe Illustrator 18.0.0, SVG Export Plug-In . SVG Version: 6.00 Build 0)  -->
<!DOCTYPE svg PUBLIC "-//W3C//DTD SVG 1.1//EN" "http://www.w3.org/Graphics/SVG/1.1/DTD/svg11.dtd">
<svg version="1.1" id="Capa_1" xmlns="http://www.w3.org/2000/svg" xmlns:xlink="http://www.w3.org/1999/xlink" x="0px" y="0px"
	 viewBox="0 0 187.369 187.369" style="enable-background:new 0 0 187.369 187.369;" xml:space="preserve">
<path d="M186.955,161.101c-0.711-1.637-2.241-2.771-4.014-2.975c-12.153-1.399-22.726-9.223-27.591-20.417v0
	c-0.104-0.24-0.207-0.485-0.309-0.74c9.944-14.287,15.187-31.007,15.187-48.528c0-46.932-38.182-85.114-85.114-85.114
	C38.182,3.326,0,41.508,0,88.44s38.182,85.114,85.114,85.114c10.79,0,21.276-1.995,31.231-5.937
	c8.544,10.578,21.279,16.426,34.405,16.426c5.931,0,11.944-1.196,17.682-3.689c7.134-3.1,13.344-8.042,17.959-14.289
	C187.451,164.629,187.666,162.738,186.955,161.101z"/>
<g>
</g>
<g>
</g>
<g>
</g>
<g>
</g>
<g>
</g>
<g>
</g>
<g>
</g>
<g>
</g>
<g>
</g>
<g>
</g>
<g>
</g>
<g>
</g>
<g>
</g>
<g>
</g>
<g>
</g>
</svg>
